<svg xmlns="http://www.w3.org/2000/svg" xmlns:xlink="http://www.w3.org/1999/xlink" width="400" height="2060" viewBox="0 0 400 2060"><svg id="angle-down" viewBox="0 0 12 12" width="12" height="12" y="0"><style>.st0{fill:#666}</style><path class="st0" d="M6 7l4.6-4.4L12 4l-6 6-6-6 1.4-1.4L6 7z"></path></svg><svg viewBox="0 0 12 12" width="12" height="12" id="angle-right" y="12"><path fill="#666" d="M7 6L2.6 1.4 4 0l6 6-6 6-1.4-1.4L7 6z"></path></svg><svg viewBox="0 0 22 22" width="400" height="400" id="arrow-left" y="24"><path fill="#666" d="M19 10H6.8l5.6-5.6L11 3l-8 8 8 8 1.4-1.4L6.8 12H19v-2z"></path></svg><svg viewBox="0 0 22 22" width="400" height="400" id="arrow-right" y="424"><path fill="#666" d="M3 10h12.2L9.6 4.4 11 3l8 8-8 8-1.4-1.4 5.6-5.6H3v-2z"></path></svg><svg id="arrow-right-long" height="400" width="400" viewBox="0 0 22 22" y="824"><style id="style10">.st0{fill:#666}</style><g id="g14" transform="matrix(-1 0 0 1 24 0)"><path class="st0" d="M23.947 10H5.846l5.6-5.6-1.4-1.4-8 8 8 8 1.4-1.4-5.6-5.6h18.102z" id="path12" fill="#666" opacity=".6"></path></g></svg><svg viewBox="0 0 20 20" width="20" height="20" id="clear-button" y="1224"><path fill="#018522" d="M10 0C4.5 0 0 4.5 0 10s4.5 10 10 10 10-4.5 10-10S15.5 0 10 0zm5 13.6L13.6 15 10 11.4 6.4 15 5 13.6 8.6 10 5 6.4 6.4 5 10 8.6 13.6 5 15 6.4 11.4 10l3.6 3.6z"></path></svg><svg viewBox="0 0 22 22" width="22" height="22" id="cog" y="1244"><path fill="#FFF" d="M11 14.5c-2 0-3.6-1.6-3.6-3.5S9 7.5 11 7.5s3.6 1.6 3.6 3.5-1.6 3.5-3.6 3.5m7.6-2.5c0-.3.1-.6.1-1 0-.3 0-.7-.1-1l2.2-1.6c.2-.1.2-.4.1-.6l-2.1-3.5c-.1-.2-.4-.3-.6-.2l-2.6 1c-.5-.4-1.1-.7-1.7-1l-.4-2.7c0-.2-.3-.4-.5-.4H9c-.3 0-.5.2-.6.4l-.3 2.7c-.7.2-1.2.6-1.8.9L3.7 4c-.2 0-.4.1-.6.3l-2 3.4c-.2.2-.1.5.1.7L3.4 10c0 .3-.1.7-.1 1 0 .3 0 .7.1 1l-2.2 1.7c-.2.1-.3.3-.1.6l2.1 3.5c.1.2.3.2.6.2l2.6-1c.5.4 1.1.7 1.7 1l.4 2.6c0 .2.2.4.5.4h4.1c.3 0 .5-.2.5-.4L14 18c.6-.3 1.2-.6 1.7-1l2.6 1c.2.1.5 0 .6-.2l2.1-3.5c.1-.2.1-.5-.1-.6L18.6 12z"></path></svg><svg id="copy" viewBox="0 0 26 26" width="26" height="26" y="1266"><style>.st0{fill-rule:evenodd;clip-rule:evenodd;fill:#999}</style><path class="st0" d="M21 24H9c-1.1 0-2-.9-2-2V8c0-1.1.9-2 2-2h12c1.1 0 2 .9 2 2v14c0 1.1-.9 2-2 2zm0-16H9v14h12V8zm-2 4h-8v-2h8v2zm0 4h-8v-2h8v2zm0 4h-8v-2h8v2zM5 18H3V4c0-1.1.9-2 2-2h12v2H5v14z"></path></svg><svg viewBox="0 0 26 26" width="26" height="26" id="copy.dxbButtonHover" y="1292"><path fill="#fff" d="M21 24H9c-1.1 0-2-.9-2-2V8c0-1.1.9-2 2-2h12c1.1 0 2 .9 2 2v14c0 1.1-.9 2-2 2zm0-16H9v14h12V8zm-2 4h-8v-2h8v2zm0 4h-8v-2h8v2zm0 4h-8v-2h8v2zM5 18H3V4c0-1.1.9-2 2-2h12v2H5v14z"></path></svg><svg viewBox="0 0 26 26" width="26" height="26" id="copy.dxbButtonPressed" y="1318"><path fill="#fff" d="M21 24H9c-1.1 0-2-.9-2-2V8c0-1.1.9-2 2-2h12c1.1 0 2 .9 2 2v14c0 1.1-.9 2-2 2zm0-16H9v14h12V8zm-2 4h-8v-2h8v2zm0 4h-8v-2h8v2zm0 4h-8v-2h8v2zM5 18H3V4c0-1.1.9-2 2-2h12v2H5v14z"></path></svg><svg viewBox="0 0 22 22" width="22" height="22" id="download" y="1344"><path fill="#FFF" d="M17.9 20H4.1C3 20 2 19.1 2 18v-4h2v4h14v-4h2v4c0 1.1-.9 2-2.1 2zM5 10h4V2h4v8h4l-6 6-6-6z"></path></svg><svg id="drop-down" viewBox="0 0 12 12" width="12" height="12" y="1366"><style>.st0{fill-rule:evenodd;clip-rule:evenodd;fill:#666}</style><path class="st0" d="M1 4l4.5 5L10 4H1z"></path></svg><svg id="font" viewBox="0 0 12 12" width="12" height="12" y="1378"><style>.st0{fill:#666}</style><path class="st0" d="M10 2H2v2h3v6h2V4h3V2z"></path></svg><svg viewBox="0 0 26 26" width="26" height="26" id="menu" y="1390"><path fill="#FFF" d="M26 7H0V3h26v4zm0 8H0v-4h26v4zm0 8H0v-4h26v4z"></path></svg><svg viewBox="0 0 100 100" width="100" height="100" id="play-button" y="1416"><path fill="#018522" d="M0 0h100v100H0z"></path><path fill="#FFF" d="M37 30v40l33-20z"></path></svg><svg id="search" opacity=".5" viewBox="0 0 22 22" width="400" height="400" y="1516"><style>.st0{fill:#666}</style><path class="st0" d="M14.5 13h-.8l-.3-.3c1-1.1 1.6-2.6 1.6-4.2C15 4.9 12.1 2 8.5 2S2 4.9 2 8.5 4.9 15 8.5 15c1.6 0 3.1-.6 4.2-1.6l.3.3v.8l5 5 1.5-1.5-5-5zm-6 0C6 13 4 11 4 8.5S6 4 8.5 4 13 6 13 8.5 11 13 8.5 13z"></path></svg><svg viewBox="0 0 22 22" width="22" height="22" id="shopping-cart" y="1916"><path fill="#FFF" d="M17.4 15H4L3 3H0V1h4l2 4h15l-3.6 10zM6 13h10l1-2H6v2zm0-6v2h11l1-2H6zm0 10c1.1 0 2 .9 2 2s-.9 2-2 2-2-.9-2-2 .9-2 2-2zm9 0c1.1 0 2 .9 2 2s-.9 2-2 2-2-.9-2-2 .9-2 2-2z"></path></svg><svg id="three-dots" viewBox="0 0 13 13" width="13" height="13" y="1938"><style>.st0{fill-rule:evenodd;clip-rule:evenodd;fill:#666}</style><path class="st0" d="M1.5 5C2.3 5 3 5.7 3 6.5S2.3 8 1.5 8 0 7.3 0 6.5.7 5 1.5 5zM6.5 5C7.3 5 8 5.7 8 6.5S7.3 8 6.5 8 5 7.3 5 6.5 5.7 5 6.5 5zM11.5 5c.8 0 1.5.7 1.5 1.5S12.3 8 11.5 8 10 7.3 10 6.5 10.7 5 11.5 5z"></path>
</svg><svg viewBox="0 0 512 512" width="22" height="22" id="user-logout" y="1951"><path d="M341.598,290.667c2.624-3.2,3.157-7.616,1.365-11.349l-0.555-1.195c4.501-6.187,10.261-15.957,10.261-32.768     c0-7.552,2.24-10.667,2.581-10.987c3.328-0.832,6.037-3.2,7.317-6.379c1.195-2.923,11.435-29.077,11.435-46.635     c0-0.896-0.107-1.771-0.299-2.603c-1.173-4.672-4.437-11.52-10.347-15.531v-56.555c0-34.368-10.496-48.448-21.568-56.64     C339.699,33.472,321.971,0,256.67,0c-66.091,0-106.667,62.123-106.667,106.667v56.555c-5.909,4.011-9.173,10.859-10.347,15.531     c-0.213,0.853-0.32,1.707-0.32,2.581c0,17.557,10.24,43.712,11.435,46.635c1.28,3.179,3.136,5.291,6.485,6.123     c1.173,0.576,3.413,3.691,3.413,11.243c0,20.267,15.211,42.795,31.531,57.771c-2.219,13.973-12.651,50.816-34.901,60.117     l-94.677,31.552c-24.341,8.107-42.581,27.819-48.832,52.736L0.968,498.752c-0.789,3.179-0.085,6.571,1.963,9.152     c2.048,2.581,5.12,4.096,8.405,4.096h0.021l276.011-0.277c5.867,0,10.624-4.928,10.624-10.816v-128     c0-11.819,6.635-22.613,17.28-28.203c3.008-1.579,5.056-4.459,5.589-7.808C323.486,319.979,330.654,304,341.598,290.667z" data-original="#000000" class="active-path" fill="#FFF"/>
<path d="M500.681,362.219h-10.667v-10.667c0-41.173-33.493-74.667-74.667-74.667s-74.667,33.493-74.667,74.667v10.667h-10.667     c-5.888,0-10.667,4.779-10.667,10.667v128c0,5.888,4.779,10.667,10.667,10.667h170.667c5.888,0,10.667-4.779,10.667-10.667v-128     C511.347,366.997,506.569,362.219,500.681,362.219z M426.014,444.288v13.952c0,5.888-4.779,10.667-10.667,10.667     s-10.667-4.779-10.667-10.667v-13.952c-6.251-3.733-10.667-10.261-10.667-18.048c0-11.755,9.557-21.333,21.333-21.333     s21.333,9.579,21.333,21.333C436.681,434.027,432.264,440.555,426.014,444.288z M468.681,362.219H362.014v-10.667     c0-29.397,23.915-53.333,53.333-53.333s53.333,23.936,53.333,53.333V362.219z" data-original="#000000" class="active-path" fill="#FFF"/></svg>

<svg viewBox="0 0 539.643 539.643" width="22" height="25" id="user-login" y="1978"><path d="M438.457,269.818H179.881V157.394c0-24.829,8.782-46.029,26.347-63.593c17.564-17.564,38.758-26.346,63.593-26.346    c24.822,0,46.023,8.782,63.587,26.346c17.564,17.564,26.346,38.771,26.346,63.593c0,6.095,2.223,11.365,6.678,15.808    c4.449,4.461,9.719,6.67,15.807,6.67h22.486c6.088,0,11.357-2.209,15.807-6.67c4.449-4.45,6.678-9.719,6.678-15.808    c0-43.324-15.404-80.393-46.199-111.201C350.213,15.397,313.15,0,269.821,0c-43.336,0-80.398,15.397-111.194,46.193    c-30.802,30.808-46.2,67.877-46.2,111.201v112.424h-11.243c-9.37,0-17.338,3.28-23.893,9.841    c-6.561,6.561-9.834,14.517-9.834,23.881v202.369c0,9.376,3.274,17.332,9.834,23.893c6.555,6.561,14.517,9.841,23.893,9.841    h337.273c9.363,0,17.332-3.28,23.893-9.841c6.555-6.561,9.836-14.517,9.836-23.893v-202.37c0-9.357-3.281-17.319-9.836-23.88    C455.789,273.099,447.82,269.818,438.457,269.818z M296.229,410.192v65.992c0,13.299-10.783,24.082-24.082,24.082h-4.651    c-13.299,0-24.082-10.783-24.082-24.082v-65.992c-14.137-8.831-23.574-24.485-23.574-42.381c0-27.607,22.381-49.981,49.982-49.981    s49.982,22.381,49.982,49.981C319.803,385.713,310.365,401.368,296.229,410.192z" data-original="#000000" class="active-path" fill="#FFF"/></svg>

<svg viewBox="0 0 111.577 111.577" width="22" height="22" id="info" y="2008"><path d="M78.962,99.536l-1.559,6.373c-4.677,1.846-8.413,3.251-11.195,4.217c-2.785,0.969-6.021,1.451-9.708,1.451   c-5.662,0-10.066-1.387-13.207-4.142c-3.141-2.766-4.712-6.271-4.712-10.523c0-1.646,0.114-3.339,0.351-5.064   c0.239-1.727,0.619-3.672,1.139-5.846l5.845-20.688c0.52-1.981,0.962-3.858,1.316-5.633c0.359-1.764,0.532-3.387,0.532-4.848   c0-2.642-0.547-4.49-1.636-5.529c-1.089-1.036-3.167-1.562-6.252-1.562c-1.511,0-3.064,0.242-4.647,0.71   c-1.59,0.47-2.949,0.924-4.09,1.346l1.563-6.378c3.829-1.559,7.489-2.894,10.99-4.002c3.501-1.111,6.809-1.667,9.938-1.667   c5.623,0,9.962,1.359,13.009,4.077c3.047,2.72,4.57,6.246,4.57,10.591c0,0.899-0.1,2.483-0.315,4.747   c-0.21,2.269-0.601,4.348-1.171,6.239l-5.82,20.605c-0.477,1.655-0.906,3.547-1.279,5.676c-0.385,2.115-0.569,3.731-0.569,4.815   c0,2.736,0.61,4.604,1.833,5.597c1.232,0.993,3.354,1.487,6.368,1.487c1.415,0,3.025-0.251,4.814-0.744   C76.854,100.348,78.155,99.915,78.962,99.536z M80.438,13.03c0,3.59-1.353,6.656-4.072,9.177c-2.712,2.53-5.98,3.796-9.803,3.796   c-3.835,0-7.111-1.266-9.854-3.796c-2.738-2.522-4.11-5.587-4.11-9.177c0-3.583,1.372-6.654,4.11-9.207   C59.447,1.274,62.729,0,66.563,0c3.822,0,7.091,1.277,9.803,3.823C79.087,6.376,80.438,9.448,80.438,13.03z" data-original="#000000" class="active-path" fill="#FFF"/></svg>

<svg viewBox="0 0 362.584 362.584" width="22" height="22" id="bug" y="2038"><path d="M261.81,94.766c-0.682-4.202,2.181-8.169,6.383-8.854c1.857-0.303,45.468-7.833,48.088-45.409   c0.293-4.203,3.926-7.42,8.226-7.166c4.259,0.301,7.471,3.995,7.179,8.241c-3.485,49.885-60.471,59.492-61.046,59.582   c-0.394,0.06-0.809,0.093-1.22,0.093C265.615,101.253,262.416,98.526,261.81,94.766z M90.121,101.155   c0.416,0.065,0.829,0.098,1.239,0.098c3.803,0,7.004-2.728,7.615-6.492c0.678-4.197-2.192-8.169-6.389-8.849   c-1.854-0.303-45.464-7.833-48.088-45.415c-0.294-4.202-3.854-7.47-8.241-7.16c-4.249,0.295-7.458,3.988-7.163,8.235   C32.58,91.464,89.565,101.071,90.121,101.155z M362.35,204.885c-10.543-42.19-63.09-44.857-65.292-44.947l-0.397-0.011   c-4.128,0-7.493,3.25-7.668,7.396c-0.088,2.063,0.635,4.036,2.032,5.554c1.396,1.519,3.297,2.402,5.35,2.487   c0.432,0.017,43.274,2.377,51.001,33.275c0.864,3.437,3.938,5.844,7.485,5.844c0.635,0,1.27-0.077,1.872-0.241   c2-0.49,3.686-1.745,4.753-3.512C362.541,208.961,362.85,206.888,362.35,204.885z M73.59,167.312   c-0.178-4.141-3.562-7.386-7.71-7.386l-0.322,0.006c-2.234,0.096-54.78,2.763-65.326,44.953c-0.497,2.003-0.192,4.076,0.867,5.845   c1.059,1.767,2.747,3.021,4.748,3.512c0.61,0.164,1.251,0.241,1.877,0.241c3.548,0,6.624-2.407,7.485-5.844   c7.699-30.793,50.583-33.259,51.007-33.275C70.471,175.169,73.776,171.561,73.59,167.312z M93.034,106.796l-1.642,2.931   l3.054,1.395c17.661,8.047,53.579,21.541,95.667,21.541l0,0c28.433,0,54.864-6.243,78.536-18.566l2.756-1.428l-1.444-2.744   c-12.63-23.954-31.475-42.301-53.279-51.916c0.195-1.535,0.299-3.081,0.299-4.613c0-20.03-16.295-36.331-36.323-36.331   c-20.04,0-36.335,16.301-36.335,36.331c0,1.533,0.1,3.073,0.297,4.613C123.836,67.168,105.584,84.411,93.034,106.796z    M275.355,121.394l-1.291-3.1l-2.982,1.543c-19.676,10.17-51.496,16.069-74.72,18.194l-2.162,0.194l-0.541,2.102   c-6.31,24.341-10.03,54.199-12.217,81.915c-3.461-44.071-8.543-81.429-8.629-82l-2.79,0.383l0.164-3.031   c-40.473-4.331-72.671-18.307-78.708-21.06l-2.838-1.294l-1.272,2.848c-8.421,18.898-12.869,40.304-12.869,61.911   c0,71.508,47.616,129.699,106.147,129.699c58.53,0,106.147-58.181,106.147-129.699   C286.798,159.382,282.945,139.667,275.355,121.394z M96.767,276.032c-0.635,0-1.272,0.076-1.882,0.24   c-2.096,0.526-51.418,13.376-58.264,60.412c-0.613,4.213,2.321,8.144,6.528,8.755c0.376,0.054,0.75,0.081,1.12,0.081   c3.806,0,7.088-2.839,7.632-6.604c5.311-36.526,46.341-47.563,46.737-47.662c4.123-1.04,6.64-5.234,5.608-9.356   C103.386,278.439,100.308,276.032,96.767,276.032z M267.701,276.272c-4.081-1.033-8.356,1.549-9.366,5.615   c-0.5,1.996-0.191,4.076,0.864,5.844c1.06,1.763,2.745,3.021,4.744,3.514c0.414,0.104,41.401,10.998,46.734,47.66   c0.549,3.766,3.827,6.61,7.633,6.61c0.369,0,0.747-0.022,1.111-0.076c4.208-0.611,7.143-4.542,6.533-8.755   C319.109,289.635,269.793,276.787,267.701,276.272z" data-original="#000000" class="active-path" fill="#FFF"/></svg>

</svg>